HIERARCHY
ROOT hip
{
  OFFSET 0 0 0
  CHANNELS 6 Xposition Yposition Zposition Zrotation Yrotation Xrotation
  JOINT abdomen
  {
    OFFSET 0 20.6881 -0.73152
    CHANNELS 3 Zrotation Xrotation Yrotation
    JOINT chest
    {
      OFFSET 0 11.7043 -0.48768
      CHANNELS 3 Zrotation Xrotation Yrotation
      JOINT neck
      {
        OFFSET 0 22.1894 -2.19456
        CHANNELS 3 Zrotation Xrotation Yrotation
        JOINT head
        {
          OFFSET -0.24384 7.07133 1.2192
          CHANNELS 3 Zrotation Xrotation Yrotation
          JOINT leftEye
          {
            OFFSET 4.14528 8.04674 8.04672
            CHANNELS 3 Zrotation Xrotation Yrotation
            End Site
            {
              OFFSET 1 0 0
            }
          }
          JOINT rightEye
          {
            OFFSET -3.6576 8.04674 8.04672
            CHANNELS 3 Zrotation Xrotation Yrotation
            End Site
            {
              OFFSET 1 0 0
            }
          }
        }
      }
      JOINT rCollar
      {
        OFFSET -2.68224 19.2634 -4.8768
        CHANNELS 3 Zrotation Xrotation Yrotation
        JOINT rShldr
        {
          OFFSET -8.77824 -1.95073 1.46304
          CHANNELS 3 Zrotation Xrotation Yrotation
          JOINT rForeArm
          {
            OFFSET -28.1742 -1.7115 0.48768
            CHANNELS 3 Zrotation Xrotation Yrotation
            JOINT rHand
            {
              OFFSET -22.5879 0.773209 7.07136
              CHANNELS 3 Zrotation Xrotation Yrotation
              JOINT rThumb1
              {
                OFFSET -1.2192 -0.487915 3.41376
                CHANNELS 3 Zrotation Xrotation Yrotation
                JOINT rThumb2
                {
                  OFFSET -3.37035 -0.52449 3.41376
                  CHANNELS 3 Zrotation Xrotation Yrotation
                  End Site
                  {
                    OFFSET -1.78271 -1.18214 1.43049
                  }
                }
              }
              JOINT rIndex1
              {
                OFFSET -7.75947 0.938293 5.60832
                CHANNELS 3 Zrotation Xrotation Yrotation
                JOINT rIndex2
                {
                  OFFSET -2.54057 -0.884171 1.56538
                  CHANNELS 3 Zrotation Xrotation Yrotation
                  End Site
                  {
                    OFFSET -1.62519 -0.234802 1.16502
                  }
                }
              }
              JOINT rMid1
              {
                OFFSET -8.24714 1.18213 3.41376
                CHANNELS 3 Zrotation Xrotation Yrotation
                JOINT rMid2
                {
                  OFFSET -3.10165 -0.590103 1.0647
                  CHANNELS 3 Zrotation Xrotation Yrotation
                  End Site
                  {
                    OFFSET -2.48547 -0.328903 0.83742
                  }
                }
              }
              JOINT rRing1
              {
                OFFSET -8.82822 0.546677 1.51678
                CHANNELS 3 Zrotation Xrotation Yrotation
                JOINT rRing2
                {
                  OFFSET -2.60934 -0.819778 -0.0198488
                  CHANNELS 3 Zrotation Xrotation Yrotation
                  End Site
                  {
                    OFFSET -2.33842 -0.294052 0.168128
                  }
                }
              }
              JOINT rPinky1
              {
                OFFSET -8.27202 -0.0477905 -0.4584
                CHANNELS 3 Zrotation Xrotation Yrotation
                JOINT rPinky2
                {
                  OFFSET -1.82734 -0.647385 -0.700984
                  CHANNELS 3 Zrotation Xrotation Yrotation
                  End Site
                  {
                    OFFSET -1.69225 -0.51767 -0.607171
                  }
                }
              }
            }
          }
        }
      }
      JOINT lCollar
      {
        OFFSET 2.68224 19.2634 -4.8768
        CHANNELS 3 Zrotation Xrotation Yrotation
        JOINT lShldr
        {
          OFFSET 8.77824 -1.95073 1.46304
          CHANNELS 3 Zrotation Xrotation Yrotation
          JOINT lForeArm
          {
            OFFSET 28.1742 -1.7115 0.48768
            CHANNELS 3 Zrotation Xrotation Yrotation
            JOINT lHand
            {
              OFFSET 22.5879 0.773209 7.07136
              CHANNELS 3 Zrotation Xrotation Yrotation
              JOINT lThumb1
              {
                OFFSET 1.2192 -0.487915 3.41376
                CHANNELS 3 Zrotation Xrotation Yrotation
                JOINT lThumb2
                {
                  OFFSET 3.37035 -0.52449 3.41376
                  CHANNELS 3 Zrotation Xrotation Yrotation
                  End Site
                  {
                    OFFSET 1.78271 -1.18214 1.43049
                  }
                }
              }
              JOINT lIndex1
              {
                OFFSET 7.75947 0.938293 5.60832
                CHANNELS 3 Zrotation Xrotation Yrotation
                JOINT lIndex2
                {
                  OFFSET 2.54057 -0.884171 1.56538
                  CHANNELS 3 Zrotation Xrotation Yrotation
                  End Site
                  {
                    OFFSET 1.62519 -0.234802 1.16502
                  }
                }
              }
              JOINT lMid1
              {
                OFFSET 8.24714 1.18213 3.41376
                CHANNELS 3 Zrotation Xrotation Yrotation
                JOINT lMid2
                {
                  OFFSET 3.10165 -0.590103 1.0647
                  CHANNELS 3 Zrotation Xrotation Yrotation
                  End Site
                  {
                    OFFSET 2.48547 -0.328903 0.83742
                  }
                }
              }
              JOINT lRing1
              {
                OFFSET 8.82822 0.546677 1.51678
                CHANNELS 3 Zrotation Xrotation Yrotation
                JOINT lRing2
                {
                  OFFSET 2.60934 -0.819778 -0.0198488
                  CHANNELS 3 Zrotation Xrotation Yrotation
                  End Site
                  {
                    OFFSET 2.33842 -0.294052 0.168128
                  }
                }
              }
              JOINT lPinky1
              {
                OFFSET 8.27202 -0.0477905 -0.4584
                CHANNELS 3 Zrotation Xrotation Yrotation
                JOINT lPinky2
                {
                  OFFSET 1.82734 -0.647385 -0.700984
                  CHANNELS 3 Zrotation Xrotation Yrotation
                  End Site
                  {
                    OFFSET 1.69225 -0.51767 -0.607171
                  }
                }
              }
            }
          }
        }
      }
    }
  }
  JOINT rButtock
  {
    OFFSET -8.77824 4.35084 1.2192
    CHANNELS 3 Zrotation Xrotation Yrotation
    JOINT rThigh
    {
      OFFSET 0 -1.70687 -2.19456
      CHANNELS 3 Zrotation Xrotation Yrotation
      JOINT rShin
      {
        OFFSET 0 -36.8199 0.73152
        CHANNELS 3 Zrotation Xrotation Yrotation
        JOINT rFoot
        {
          OFFSET 0.73152 -45.1104 -5.12064
          CHANNELS 3 Zrotation Xrotation Yrotation
          End Site
          {
            OFFSET -1.1221 -3.69964 12.103
          }
        }
      }
    }
  }
  JOINT lButtock
  {
    OFFSET 8.77824 4.35084 1.2192
    CHANNELS 3 Zrotation Xrotation Yrotation
    JOINT lThigh
    {
      OFFSET 0 -1.70687 -2.19456
      CHANNELS 3 Zrotation Xrotation Yrotation
      JOINT lShin
      {
        OFFSET 0 -36.8199 0.73152
        CHANNELS 3 Zrotation Xrotation Yrotation
        JOINT lFoot
        {
          OFFSET -0.73152 -45.1104 -5.12064
          CHANNELS 3 Zrotation Xrotation Yrotation
          End Site
          {
            OFFSET 1.1221 -3.69964 12.103
          }
        }
      }
    }
  }
}
MOTION
Frames:	5
Frame Time:	0.03333
9.6026 80.499 55.5481 50.74034 -43.413971 -39.644283 -18.295507 31.321474 20.521195 -3.220315 -10.473676 4.036865 -4.72447 17.925756 -44.545051 19.937262 -22.86331 68.404204 -22.284235 -0.5464 2.773708 -26.224576 5.657714 -23.953638 -2.806136 -48.982364 -20.650724 -129.250003 -19.733404 -171.039815 1.795661 52.326174 -143.602509 171.029605 -13.902472 139.228496 -144.960932 30.554474 90.264153 122.795191 -39.46678 76.957887 29.747866 -50.041659 0.88546 -157.56387 44.400618 113.678904 -162.459223 -5.155029 139.036975 7.651032 -26.509616 9.35793 -144.867692 -83.779878 -155.883296 27.375542 -80.095884 11.504816 54.42198 71.321574 -62.116186 -31.012802 -1.963391 67.782949 -109.307891 -83.619365 -80.104367 45.598419 -39.179864 54.400733 -10.815803 -67.108091 105.437189 168.232996 13.155886 -135.049551 1.057296 3.928304 -5.846098 29.57185 12.924504 -17.929205 112.310441 10.660766 -119.148417 146.685626 34.596758 -142.860467 20.137911 43.328633 -15.175035 65.920326 61.102433 -36.349664 7.528647 -34.975775 11.961578 -61.687936 75.606802 49.080826 164.948384 5.06664 135.727745 -153.437241 51.507199 142.471045 43.562082 32.633529 70.671204 -105.321761 43.215081 23.598506 45.034423 23.033718 -62.080119 -71.053959 13.955429 0.557573 24.134418 20.805417 21.031744 121.455252 -22.710852 54.325366 -151.7279 -5.490692 -93.503677 -72.243964 27.48124 173.826005
10.2163 79.2357 54.655100000000004 47.774777 -44.242932 -37.768476 -15.036214 27.833716 -152.873776 4.958656 4.891346 178.03022 -2.277106 15.933679 -31.189587 11.617243 -25.591424 54.42138 -21.25182 -0.475747 2.535391 -32.752858 6.110771 -20.589465 -133.126231 -71.197877 -158.056471 -96.365853 -58.375629 -110.095667 -17.169236 54.962298 -129.29033 166.080401 -25.596495 137.008179 172.412081 -25.555628 100.657357 -152.874451 21.105252 85.492078 -144.350951 -4.511877 115.476144 133.651257 -44.221791 56.467141 -87.323969 55.98461 75.66846 -0.533652 28.25282 16.399946 -124.991239 43.025653 139.679511 29.908101 37.515946 -14.999761 84.848562 72.35976 -88.940473 -24.687965 -18.946743 54.954506 139.017602 21.772307 -145.933017 -14.818772 -48.132645 -53.563042 -49.353421 19.994102 141.39437 142.865709 48.792111 -113.274159 -161.414998 -31.611429 -75.72182 137.276129 5.228072 -78.105851 140.087141 -56.726349 -128.741064 -101.187013 -62.259364 -16.257969 163.2717 -12.15837 -145.680675 158.037263 -18.835673 -157.818365 -3.851002 -3.975823 -0.626967 -58.258585 74.342549 45.83772 161.446242 21.434773 141.941367 -178.672775 41.806979 154.963361 -53.107717 -5.940047 -33.712073 24.990149 -14.221624 -144.161744 -39.48851 -53.15975 -114.287949 51.239112 62.328006 -151.503232 54.567924 36.508143 30.463529 99.843666 -45.545239 166.917958 -166.638406 37.067394 97.065195 2.410069 -18.870966 66.553856
10.741399999999999 78.1511 53.762299999999996 45.352502 -44.892805 -36.586936 -15.493874 27.976877 -175.74407 2.431384 5.437222 -157.063579 -4.356939 23.194939 -89.559898 35.025866 -0.439325 113.108147 -21.704797 -0.333971 1.741949 -35.23992 6.970986 -21.712297 -151.231882 26.160732 160.709091 -24.829439 -9.507452 12.30006 28.349408 28.984363 -162.893028 178.439734 14.78977 141.203099 -178.636081 -10.230638 100.263505 -24.979528 -51.588278 -6.603215 -109.263542 26.244271 95.177866 25.074273 35.975437 3.559416 -158.267003 8.073942 134.343747 9.868614 -16.096746 16.008993 3.33363 -43.151892 2.732547 -161.226621 35.594295 156.306858 -10.052681 53.659492 -13.225532 177.221137 -45.72515 148.294367 153.307015 -20.557988 -159.14768 -150.317857 -1.154173 -179.351159 152.30004 51.602111 -37.821524 171.077656 -2.624056 -137.247637 66.989365 32.416702 -40.182305 1.566302 -7.962699 -12.494674 -16.906344 20.850018 -4.228054 2.045774 -23.968046 3.849997 168.70054 -28.772941 -147.324703 104.006862 73.37582 -100.256762 -9.824578 -3.815491 -0.403983 14.13937 -32.758393 32.276126 148.182713 7.72854 137.725337 139.197682 -34.342516 116.389252 43.765614 27.989691 61.264348 -97.934366 32.142331 10.265048 46.580165 36.562115 -110.429736 61.924724 5.785083 14.551733 104.655121 56.770143 24.625694 57.246306 -73.932509 -67.516383 154.914515 -13.693834 78.728779 -94.239328 -19.41604 171.298727
11.118400000000001 77.4743 52.9255 41.685126 -44.615311 -34.461658 -13.402281 29.33013 -145.065054 6.147056 2.680312 171.734736 -4.955336 20.237735 -72.051986 31.288348 -7.589954 100.334144 -21.480607 -0.184505 0.972691 -35.894603 6.63728 -20.299469 -153.60906 9.545922 163.446151 158.977376 -13.116421 173.709544 -41.784026 -19.10831 110.292776 17.309509 -36.034042 4.043909 -102.644347 46.769283 55.523441 4.384806 -24.877462 31.683097 177.374919 -61.730038 106.416894 21.685792 -19.451777 29.163235 -163.830242 -0.324129 136.718114 3.953365 -14.44756 14.121569 3.50446 -34.775656 3.280669 -124.359366 73.775876 117.265667 151.13106 37.546217 -128.377605 142.910163 42.30136 -160.334248 144.510411 17.195862 -153.137419 -138.302505 -24.181268 -153.208481 -159.002701 54.98155 -73.005349 159.325317 24.360387 -129.290462 -52.647982 -32.979755 -14.458004 -0.930685 -69.034784 30.205505 53.200671 45.275444 -68.756214 -3.340383 6.463283 21.463962 171.729619 -33.799111 -146.26772 1.88848 18.263635 7.095596 -13.336641 2.144361 -1.098953 57.802259 -62.848188 63.864987 143.793219 20.283446 139.724704 149.858394 -1.506836 135.763868 45.557025 28.268891 55.079622 -96.222862 25.248869 -136.854542 -55.126021 -5.529752 90.026259 147.333065 -32.051378 21.340098 30.30814 23.308295 24.101167 125.226177 -30.560317 -102.590565 137.307906 9.272233 -108.356177 -150.646307 -37.54022 -9.447887
11.3187 76.8168 52.172 36.959485 -43.561348 -31.6204 -15.07619 30.390758 159.647566 -1.008238 5.418213 -132.256113 -6.777941 22.971758 -78.83411 34.784474 -1.141472 108.201375 -21.300194 0.419552 -2.230792 -32.11505 4.519973 -15.614289 -0.484445 5.998289 -1.368327 -129.50886 -3.916533 161.215556 12.714094 12.065661 -147.887283 173.008034 -2.038878 142.041165 -179.446638 -14.023083 98.396468 65.738656 -75.706072 51.417211 -149.817211 -34.009843 120.854104 -156.388758 -20.775673 81.930255 -1.400676 -11.152905 1.439159 0.817921 35.984588 -3.525207 -130.494985 35.837819 153.780797 39.04687 56.130075 -9.439138 -104.148652 -34.770134 -60.462374 97.740016 25.108378 -22.261866 143.975277 22.076422 -153.731575 -146.512996 -7.663886 -153.754241 174.355606 27.627145 -49.851629 165.934128 8.244698 -135.600539 165.942892 -9.182523 -82.996193 172.117443 -20.062403 -84.272628 -40.766114 -23.405201 3.822152 -9.006076 -16.286015 0.968415 179.272037 -50.579719 -143.787388 170.146077 -44.842196 -159.510004 129.697937 1.856623 179.215647 134.061379 -30.404076 -173.882982 29.724451 -44.176907 45.451008 144.116418 58.697074 168.070601 59.424807 42.535733 54.944076 -116.744378 34.056228 96.64491 46.273174 -43.502562 -57.023199 -130.823053 -76.269708 144.019122 148.591916 63.672403 10.768373 -82.91255 -75.744914 177.514146 136.414431 -10.496347 -123.147141 87.664012 38.241946 -20.540121
